<svg xmlns="http://www.w3.org/2000/svg" viewBox="0 0 500.937 512"><defs><style>.cls-1{fill:#66ffca;}.cls-2{fill:#00213d;}</style></defs><title>Recurso 7</title><g id="Capa_2" data-name="Capa 2"><g id="Capa_2-2" data-name="Capa 2"><rect class="cls-1" width="500.937" height="512" rx="104.867"/><path class="cls-2" d="M236.433,380.388a22.141,22.141,0,0,0-3.226-.09c-32.035.686-21.106-23.335-23.279-41.991a.06.06,0,0,1-.008-.032c-1.6-29.151-25.353-52.307-54.512-52.307-30.188,0-54.659,24.806-54.659,55.4a55.661,55.661,0,0,0,9.614,31.357c.024.04.024.081.057.13,8.854,12.987,27.566,35.081,66.706,38.577,34.746,3.1,55.86-12.562,61.308-17.9a18.411,18.411,0,0,0,2.41-2.663,6.9,6.9,0,0,0-4.411-10.487Z"/><circle class="cls-2" cx="335.464" cy="152.804" r="52.641" transform="translate(121.978 453.32) rotate(-79.099)"/><path class="cls-2" d="M394.359,322.931c-9.475-20.121-28.544-32.135-49.5-37.581-21.248-5.522-43.943-6.951-63.045-18.778a70.009,70.009,0,0,1-15.259-12.765c-8.47-9.445-13.256-21.366-15.414-33.755-2.479-14.235-.858-28.518-1.676-42.847-1.933-33.863-29.152-61.246-63.592-61.246a63.74,63.74,0,0,0-63.913,63.562c0,23.566,12.891,45.744,34.282,55.808,9.193,4.325,19.078,6.973,28.481,10.819,24.087,9.852,41.865,20.712,55.588,39.82A118.661,118.661,0,0,1,257.6,320.68c3.95,13.241,6.2,26.942,10.189,40.174,9.225,30.567,33.613,50.141,65.947,50.957,17.759.448,36.276-4.866,48.8-17.468,14.273-14.363,20.355-37.246,16.541-56.956A61.1,61.1,0,0,0,394.359,322.931Z"/></g></g></svg>